<?xml version="1.0" standalone="no"?>
<!DOCTYPE svg PUBLIC "-//W3C//DTD SVG 20010904//EN"
 "http://www.w3.org/TR/2001/REC-SVG-20010904/DTD/svg10.dtd">
<svg version="1.0" xmlns="http://www.w3.org/2000/svg"
 width="1884.000000pt" height="1884.000000pt" viewBox="0 0 1884.000000 1884.000000"
 preserveAspectRatio="xMidYMid meet">
<metadata>
Created by potrace 1.11, written by Peter Selinger 2001-2013
</metadata>
<g transform="translate(0.000000,1884.000000) scale(0.100000,-0.100000)"
fill="#000000" stroke="none">
<path d="M5639 15696 c-2 -2 -62 -7 -134 -10 -71 -4 -150 -9 -175 -11 -25 -2
-92 -6 -150 -10 -58 -3 -121 -8 -140 -10 -19 -2 -75 -6 -125 -10 -49 -4 -99
-8 -110 -9 -11 -2 -60 -6 -110 -10 -49 -4 -101 -9 -115 -11 -14 -2 -52 -7 -85
-10 -33 -3 -78 -7 -100 -10 -22 -2 -67 -7 -100 -10 -33 -4 -71 -8 -85 -10 -40
-6 -101 -13 -161 -20 -31 -3 -65 -7 -75 -9 -11 -2 -46 -7 -79 -10 -33 -4 -71
-9 -85 -11 -14 -2 -78 -11 -142 -20 -65 -9 -125 -18 -135 -19 -10 -2 -40 -7
-68 -10 -27 -4 -75 -11 -105 -16 -30 -5 -73 -12 -95 -15 -22 -2 -51 -7 -65
-10 -14 -3 -43 -7 -65 -10 -22 -3 -47 -7 -55 -10 -8 -2 -35 -7 -60 -10 -25 -3
-52 -8 -60 -10 -8 -2 -31 -6 -50 -9 -19 -3 -60 -10 -90 -16 -30 -7 -68 -14
-85 -17 -59 -10 -422 -93 -520 -119 -55 -14 -116 -30 -135 -34 -19 -5 -53 -14
-75 -20 -22 -6 -49 -13 -60 -15 -21 -5 -587 -167 -990 -283 -303 -88 -520
-148 -563 -157 -52 -11 -38 -17 73 -29 33 -4 71 -9 85 -11 14 -2 45 -7 70 -10
25 -3 70 -9 100 -15 30 -5 71 -11 90 -14 54 -8 260 -45 310 -55 25 -5 62 -12
84 -15 21 -4 41 -8 45 -10 3 -2 23 -7 43 -10 21 -3 59 -11 85 -17 27 -6 55
-12 63 -14 106 -24 206 -47 252 -59 31 -9 67 -17 80 -20 48 -9 359 -96 503
-141 301 -94 771 -263 934 -336 24 -11 65 -29 92 -39 27 -11 99 -43 161 -71
62 -28 142 -65 178 -81 265 -121 669 -337 975 -521 244 -146 721 -460 810
-534 6 -4 69 -51 140 -103 72 -52 139 -102 150 -111 11 -9 79 -63 150 -120
433 -343 816 -689 1265 -1144 71 -71 146 -149 167 -171 21 -23 82 -88 135
-145 110 -119 119 -129 208 -229 120 -136 145 -165 150 -170 10 -10 238 -287
296 -360 32 -41 61 -77 64 -80 11 -10 269 -359 337 -455 203 -290 462 -697
603 -950 18 -33 43 -78 55 -100 523 -940 947 -2063 1180 -3130 15 -66 28 -127
30 -135 3 -12 58 -289 80 -405 8 -41 36 -204 40 -235 2 -14 6 -38 9 -55 8 -45
24 -154 31 -205 3 -25 8 -56 10 -70 2 -14 7 -47 10 -75 4 -27 8 -65 11 -83 10
-78 13 -100 19 -157 3 -33 8 -71 10 -85 2 -14 7 -56 10 -95 4 -38 8 -86 10
-105 7 -62 14 -133 20 -215 4 -44 8 -100 10 -125 5 -59 17 -253 19 -307 1 -27
5 -39 12 -35 20 12 309 270 439 392 198 186 581 576 765 779 52 58 102 112
110 121 8 9 40 45 70 80 30 34 60 68 65 74 12 13 131 152 155 180 8 10 20 23
25 30 6 6 35 40 65 76 198 232 360 313 556 276 80 -15 210 -91 309 -182 115
-104 479 -457 1023 -993 233 -229 428 -418 433 -419 5 -2 9 2 10 10 1 18 5 45
13 93 9 53 12 71 31 200 9 61 18 121 21 135 2 14 7 43 9 65 3 22 8 52 10 68 3
15 7 39 10 55 2 15 13 88 25 162 11 74 23 151 26 170 11 69 15 95 18 115 2 11
7 40 10 65 3 25 13 81 21 125 7 44 17 100 20 125 4 25 10 63 15 85 5 22 11 58
14 80 4 23 9 52 11 65 3 14 8 40 11 59 3 18 7 42 9 51 2 10 7 40 11 67 5 26 9
50 9 53 1 3 5 28 10 55 4 28 9 59 11 70 27 139 37 298 38 555 1 287 -2 348
-30 540 -13 91 -20 134 -38 225 -31 152 -113 434 -161 550 -7 17 -32 77 -55
135 -41 98 -154 331 -217 445 -57 103 -270 434 -293 455 -3 3 -45 59 -95 125
-174 234 -550 693 -774 945 -368 415 -836 896 -1162 1194 -30 28 -81 75 -114
105 -126 116 -335 300 -445 391 -30 25 -70 59 -90 75 -55 48 -301 247 -342
278 -20 14 -42 32 -50 39 -13 13 -88 71 -283 218 -448 338 -1134 788 -1635
1072 -254 144 -566 312 -765 411 -11 6 -27 14 -35 18 -8 5 -28 15 -45 23 -16
8 -100 47 -185 89 -477 229 -998 449 -1370 578 -47 17 -94 34 -105 39 -65 29
-704 233 -970 311 -60 17 -117 34 -125 37 -8 3 -18 6 -22 7 -5 2 -9 3 -10 5
-2 1 -10 3 -18 5 -8 1 -42 11 -75 21 -33 10 -64 19 -70 20 -5 1 -309 88 -675
193 -366 106 -669 193 -675 194 -5 2 -50 16 -100 31 -49 15 -121 37 -160 49
-69 21 -69 21 -35 29 19 4 61 10 94 13 32 3 72 8 90 10 27 4 96 9 266 20 280
19 929 25 1205 11 236 -11 328 -16 375 -21 25 -3 77 -7 115 -10 122 -10 250
-22 360 -35 44 -6 98 -12 120 -15 22 -2 54 -7 70 -10 17 -2 50 -7 75 -10 25
-3 54 -7 65 -9 21 -4 89 -14 140 -22 17 -2 43 -7 58 -10 16 -3 38 -7 50 -9 18
-2 177 -31 337 -62 304 -57 768 -181 1160 -308 745 -243 1611 -630 2320 -1037
58 -34 121 -70 140 -80 19 -11 93 -55 163 -97 70 -42 136 -80 145 -86 39 -22
349 -219 402 -256 21 -14 109 -72 129 -84 41 -25 167 -110 171 -116 3 -3 32
-24 66 -47 53 -35 166 -115 244 -172 83 -60 476 -355 480 -360 3 -3 23 -19 45
-35 22 -17 42 -32 45 -35 3 -3 61 -50 130 -104 130 -103 473 -388 501 -415 9
-9 29 -27 45 -40 44 -37 166 -144 190 -166 19 -18 134 -121 188 -168 31 -27
227 -209 325 -302 66 -62 467 -453 525 -511 81 -82 391 -401 455 -470 230
-243 222 -235 496 -534 33 -36 84 -93 114 -125 30 -33 109 -118 176 -190 68
-71 138 -147 157 -167 l34 -37 78 197 c405 1020 707 1517 1153 1899 74 63 235
180 288 209 11 6 56 31 100 55 157 87 363 168 560 219 l110 28 3 57 3 56 -133
136 c-73 74 -138 140 -144 147 -24 24 -244 235 -315 301 -41 39 -130 120 -199
180 -69 61 -127 112 -130 115 -29 30 -391 323 -520 421 -248 188 -655 469
-747 515 -18 9 -37 22 -44 30 -6 8 -15 14 -20 14 -5 0 -32 15 -61 33 -211 134
-688 383 -1008 527 -52 23 -118 53 -147 66 -127 58 -626 268 -818 343 -115 46
-219 87 -230 91 -67 30 -494 183 -745 268 -847 287 -1660 504 -2535 677 -121
24 -236 46 -255 49 -19 3 -46 8 -60 11 -27 5 -186 33 -235 41 -16 2 -55 9 -85
14 -30 5 -71 12 -90 15 -19 3 -46 7 -60 10 -14 3 -45 7 -70 10 -25 3 -56 7
-70 10 -14 3 -43 7 -65 10 -22 2 -58 7 -80 10 -22 4 -51 8 -65 10 -97 15 -289
38 -485 60 -290 32 -304 33 -394 41 -41 3 -82 7 -91 9 -9 2 -68 6 -131 10 -63
3 -127 8 -144 10 -16 3 -77 7 -135 10 -58 3 -123 9 -145 12 -46 6 -2269 16
-2276 9z"/>
</g>
</svg>
